<?xml version="1.0" encoding="UTF-8"?>
<svg id="Layer_2" data-name="Layer 2" xmlns="http://www.w3.org/2000/svg" viewBox="0 0 583.89 308.83">
  <defs>
    <style>
      .cls-1 {
        fill: #fff;
      }
    </style>
  </defs>
  <g id="Layer_1-2" data-name="Layer 1">
    <g>
      <g>
        <path class="cls-1" d="M509.68,159.8c-7.1.96-56.13,5.36-56.57.04-.36-4.31,8.9-2.5,19.35-15.52,5.29-6.59,9.45-13.4,13.63-21.15,16.1-3.84,32.16-6.56,48.68-9.35,7.71-1.3,14.54-3.08,21.59-6.3,2.47-1.13,6.23-2.44,8.51-.63,3.96,3.13-20.66,32.46-23.9,36.17-8.27,9.49-18.69,15.03-31.29,16.74Z"/>
        <path class="cls-1" d="M481,113.98c-4.12-4.85,3.77-3.27,12.51-15.4,3.71-5.14,6.84-10.29,9.39-16.11.94-2.15,2.17-4.18,3.82-5.91,24.99-5.05,40.02-8.45,63.29-19.02,2.34-1.06,3.98-3.31,7.1-3.22,2.24,11.29-18.28,39.2-25.85,47.93-5.83,3.89-11.98,4.46-18.74,5.36-14.36,1.9-28.17,4.98-42.69,5.83-2.86.17-5.39-.81-8.84.54Z"/>
        <path class="cls-1" d="M483.02,202.06c-6.3.39-49.96,1.65-50.77-2.67-1.13-6.06,14.87-8.04,26.73-25.23,1.41-2.05,3.4-5.75,6.17-6.4,19.53.04,38.56-.72,57.93-2.69,2.04-.21,3.69-.09,4.36,1.32.77,1.6,1.05,3.46-.37,4.94-8.71,9.13-31.46,29.93-44.05,30.71Z"/>
        <path class="cls-1" d="M429.6,125.49c-14.64.33-20.72,14.79-22.8,10.89-.16-.3-.5-1.1-.12-1.66l17.29-26.2c7.22-10.94,19.1-15.88,31.64-18.61l22.04-4.79c15.88-3.45,14.62-9.29,17.76-8.94,3.83.43-.06,10.28-1.54,13.19-5.89,11.55-15.48,19.41-26.69,25.59-7.43,4.1-15.48,5.32-23.83,7.14-4.66,1.02-8.73,3.28-13.73,3.39Z"/>
        <path class="cls-1" d="M400.24,167.62l-11.97,5.52c-1.19.55-2.4.49-2.76-.68s.99-1.61,1.56-2.53l10.06-16.26c6.8-11,19.55-16.79,32.3-19.1l20.95-3.8c7.57-1.37,14.5-3.67,21.16-7.5,1.83-1.05,3.93-1.91,5.92-1.7,1.3,3.23-.55,5.8-1.98,8.69-4.93,9.99-11.9,19-22.09,24.08-14.08,7.01-42.54,8.4-53.15,13.29Z"/>
        <path class="cls-1" d="M428.04,196.57c-16.94,6.84-40.82,4.45-58.89,3.57-6.58-.32,15.19-15.29,16.25-16.9,10.67-5.45,21.99-10.44,34.05-10.67l20.88-.4c7.12-.14,9.96-2.66,11.47-2.26.58.16,1.28,1.47.6,2.27-4.94,5.76-18.23,21.91-24.35,24.39Z"/>
        <path class="cls-1" d="M464.03,231.72c-7.84,5.11-16.59,7.24-26.01,7.04-4.23-.09-27.91-1.55-28.95-4.09-.34-.84.41-2.47,1.39-3.14,9.34-6.38,18-13.08,25.69-21.42,2.44-2.65,5.74-3.65,9.25-3.03,8.1,1.43,15.87,3.32,24.15,4.05,5.19.45,10.57-.81,15.66-1.33,1.2-.12,5.22,1.42,3.7,2.87-7.59,7.23-16.1,13.33-24.89,19.05Z"/>
        <path class="cls-1" d="M546.53,59.21c-2.69,1.01-38.65,12.43-39.03,7.35,7.08-8.85,9.4-15.4,15.93-23.53,14.67-3.38,34.16-9.61,45.86-19.23,2.48-2.03,11.11-10.77,13.03-9.09,1.78,1.57-2.58,12.49-3.46,14.25-6.54,13.13-18.71,25.13-32.34,30.25Z"/>
        <path class="cls-1" d="M444.31,247.66c-18.96,18.1-41.36,18.69-65.69,15.39-4.2-.57-18.07-.62-18.99-3.55-.84-2.68,10.53-3.24,18.14-6.5,14.74-6.3,18.59-14.9,21.48-15.75,5.77-1.71,7.37,5.02,21.55,6.41,7.11.7,13.89,1.41,20.99-.09,1.01-.21,2.27.23,2.69.71.53.6.66,2.59-.17,3.39Z"/>
        <path class="cls-1" d="M424.52,211.25c-3.08,3.06-18.22,15.16-21.98,15.16-13.5.03-26.69-.75-40.2-1.87-4.57-.38-8.81-.06-9.91-.92-2.88-2.25,7.72-12.9,10.29-14.86s6.2-1.94,9.36-1.83l37.46,1.22c6.16.2,14.85-2.14,15.56-.15.36.99.26,2.41-.57,3.24Z"/>
        <path class="cls-1" d="M375.85,247.29c-10.88,8.7-20.31,5.36-32.34,4.72-3.73-.2-16.29,1.45-17.6-.35-.4-.54-.79-1.96-.08-2.66,6.66-6.57,13.14-12.74,20.69-18.34,5.58.52,42.65,2.34,43.65,4.25,1.1,2.12-11.69,10.29-14.31,12.38Z"/>
        <path class="cls-1" d="M491.59,71.76c-15.13,8.15-33.39,9.49-36.98,11.92-2.12,1.43-5.1,2.29-7.83-.17,8.95-7.37,16.9-14.78,26.5-20.73,11.62-7.2,24.91-12.09,38.11-15.42,1.6,1.4,1.25,4.26.07,5.76-5.61,7.11-11.72,14.26-19.88,18.65Z"/>
      </g>
      <g>
        <path class="cls-1" d="M135.74,161.76c.74,4.06-28.56.81-32.91.8l-18.8-.05c-2.99,0-5.4-1.68-8.09-2.38-5.45-1.42-9.9-3.64-14.67-6.55-10.29-6.28-20.39-12.49-28.94-21.12-4.52-4.57-7.04-10.41-10.64-15.62l-5.46-7.92c-.45-.65-.33-1.59-.1-2.16.87-2.22,10.6,1.48,12.25,1.87,19.62,4.64,47.03,5.81,67.53,11.03,6.75,17.51,17.71,33.26,35.48,40.47,1.4.22,4.06.02,4.35,1.64Z"/>
        <path class="cls-1" d="M103.21,110.67c-4.48,2.6-9.29,1.96-13.93,1.38-10.72-1.34-21.09-2.38-31.64-4.27-9.78-1.75-18.02-5.71-25.82-11.64-16.96-12.92-19.52-18.74-24.5-38.31-.2-.79-1.26-1.52-.52-2.18.36-.32,1.23-.7,2.05-.29,5.64,2.81,11.42,4.38,17.16,6.86,14.03,6.07,28.4,9.67,43.8,8.79,2.44-.14,4.44,1.65,5.1,3.77,2.32,7.49,6.04,13.82,10.72,20.04,3.35,4.45,6.47,9.05,11.24,12.12,1.73,1.79,4.35.47,6.34,3.73Z"/>
        <path class="cls-1" d="M150.8,200.31c-3.41,1.27-6.61,1.29-9.94,1.41l-34.27,1.22c-5.3.19-9.73-.47-14.35-3.07-16.69-9.39-20.74-17.79-35.75-27.84-1.11-.74-1.8-1.97-1.64-3.14.15-1.08,1.54-2.41,3.15-2.27l26.77,2.28c4.09.35,28.62-2.95,31.52.31,5.23,5.88,9.92,12,16.07,16.97,7.29,5.9,19.4,8.28,18.45,14.12Z"/>
        <path class="cls-1" d="M173.44,129.56c1.58,1.56,3.62,3.88,3.31,5.97-.71,4.66-37.59-9.93-41.62-11.43-15.34-5.7-28.2-14.79-38.56-27.4-2.68-3.25-13.31-14.76-11.16-18.15,1.69-2.68,13.35,4.92,20.55,6.49l22.07,4.81c11.05,2.41,19.91,7.98,26.37,17.31,5.63,8.12,11.81,15.25,19.04,22.4Z"/>
        <path class="cls-1" d="M176.83,148.5c3.82,3.36,22.17,20.23,21.92,23.9-.05.79-1.87,1.88-3.1,1.41-14.63-5.64-29.18-9.74-44.36-13.58-20.88-5.29-31.12-16.5-44.67-31.45-.91-1.01-.98-2.95-.55-4.02.41-1.01,2.6-1.55,4.29-1.4,17.17,1.52,33.27,6.95,48.67,14.43,6.42,3.12,12.44,6,17.8,10.72Z"/>
        <path class="cls-1" d="M213.75,201.18l-38.24-2.64c-6.35-.44-12.88-.94-18.43-4.16-9.17-5.32-16.63-12.66-23.98-20.09-.75-.76-.75-2.22-.46-2.8s1.46-1.27,2.56-1.26c15.26.2,30.13,1.5,45.36,3.01,6.28,2.21,38.4,20.76,35.95,26.8-.28.7-1.5,1.22-2.76,1.13Z"/>
        <path class="cls-1" d="M146.17,237.05c-9.58-.68-18.4-2.13-26.59-6.55-8.96-4.84-17.33-10.02-25.87-15.43-.97-.61-1.05-1.92-.94-2.63.13-.8,1.35-1.41,2.54-1.35,15.3.74,29.98-.51,44.96-3.52,2.9-.58,5.56-.52,8.52-.28,3.4,5.99,8.57,10.2,13.74,14.7,8.49,7.39,16.67,5.67,16.82,9.06.07,1.67-1.37,1.72-2.77,2.08-9.99,2.59-19.74,4.68-30.41,3.91Z"/>
        <path class="cls-1" d="M218.29,263.78c-13.99,2.62-27.58,1.67-41.13-1.02-12.82-2.54-27.06-3.91-37.33-12.79-.87-.75-1.42-2.13-1.2-2.94.23-.86,1.81-2.23,3.08-2.29,19.7-.99,22.4-4.22,40.69-8.88,13.06,8.38,29.23,17.61,44.49,20.86,1.03.22,1.22,1.51,1.22,2.1,0,2.64-6.84,4.4-9.81,4.96Z"/>
        <path class="cls-1" d="M59.37,43.9c3.42,3.36,10.51,16.09,17.54,22.22.72.63.77,1.83.49,2.36-.57,1.07-2.06-.11-2.95-.22-17.17-2.18-33.95-6.19-49.49-14.07S6.18,33.7,1.7,18.23c-.37-1.28-2.12-2.51.02-3.88,6.13,5.42,11.22,11.54,18.2,15.75,8.75,5.27,18.29,8.34,28.18,11.01,3.55.96,8.6.16,11.27,2.79Z"/>
        <path class="cls-1" d="M229.81,222.44c-5.59,2.51-32.77,3.68-40.43,3.99-4.72.19-9.24.89-13.62-1.46-6.59-3.53-12.66-8.73-17.57-14.1-.68-.74-1.1-3.5,0-3.55l42.09-1.8c11.2-.48,21.82,6.3,30.24,12.9.74.58.93,1.49,1.04,2.14.17,1.01-.7,1.4-1.74,1.87Z"/>
        <path class="cls-1" d="M258.52,250.34c-.75,3.99-18.09.81-22.4.74-11.72.2-22.61-3.24-32.34-9.66-2.57-1.7-8.42-3.93-7.3-6.52.26-.59,1.22-1.19,2.36-1.28,11.79-.95,23.28-1.45,34.95-3.25.88-.14,1.9-1.36,2.86-.65,5.46,4.07,10.29,8.56,15.43,13.04,3.22,2.81,7.11,4.05,6.46,7.58Z"/>
        <path class="cls-1" d="M132.3,83.24c-2.69.61-3.63-2-5.53-2.63-11.2-3.74-21.85-7.56-32.49-12.52-7.76-3.62-14.8-8.28-19.74-15.27-1.27-1.79-2.62-3.67-1.81-6.1,4.67.34,8.43,2.18,12.66,3.65,18.01,6.26,34.36,15.65,48.39,28.52.88.81,1.09,1.81.92,2.72-.15.81-1.11,1.34-2.39,1.63Z"/>
      </g>
      <g>
        <path class="cls-1" d="M297.18,167.69l5.14-6.45c8.57,5.77,18.26,9.07,28.32,9.23,12.86.2,16.51-10.54,19.47-8.88,3.83,2.15-2.16,12.78-3.62,15.81-5.6,11.59-18.24,11.22-29.68,6.41.73,3.74,4.28,4.95,7.24,6.44,10.2,5.11,22.09,1.4,27.68-8.46,2.56-4.51,4.67-8.81,5.56-14.06l2.26-13.37c.53-3.1,2.35-5.06,3.52-7.54,2.46-5.21,5.69-9.02,9.34-13.36,8.28-9.86,16.23-19.36,25.4-28.51,10.03-10.01,19.1-20.13,30.05-29.22,13.07-10.86,26.37-20.91,41.31-29.11,11.91-6.53,24.85-10.21,37.81-13.82,9.47-2.64,18.54-4.18,27.66-7.68,13.3-5.1,25.87-11.11,38.26-18.02,3.75-2.09,6.29-5.6,10.98-6.74-.69,3.16-3.25,4.6-4.81,6.91-11.48,16.96-34.54,26.06-53.53,31.84-8.57,2.61-16.5,5.72-25.3,7.64-10.49,2.29-20.1,6.33-29.14,12.21-7.86,5.12-15.66,10.05-22.51,16.47-12.55,11.76-23.72,24.13-35.09,36.88-5.64,6.32-8.82,13.55-13.44,20.55-6.34,9.6-12.93,18.58-18.2,28.9-2.73,5.34-6.04,9.84-9.12,14.97-7.87,13.11-16.03,25.4-25.19,37.66-17.38,23.27-15.14,22.75-39.6,39.87-4.43,3.1-8.74,6.43-14.19,7.53-8.03,1.62-15.68-1.65-21.84-6.74l-16.82-13.94c-9.29-7.7-25.9-33.13-32.68-44.54l-26.81-45.07c-9.04-15.2-21.23-33.56-32.61-46.97-8.48-10-16.15-20.14-26.2-28.7-12.24-10.41-33.39-23.53-48.73-28.37l-27.99-8.82-20.08-6.9C26.24,27.02,14.74,19.07,5.63,7.57,3.71,5.14-.07,3.85,0,0c6.81,4.98,12.16,10.44,19.19,14.47s14.2,8.16,22.12,9.93c11.1,2.48,21.48,4.9,32.39,8.21,14.73,4.47,29.58,8,42.99,16.25,4.54,2.8,9.12,5.3,13.5,8.37,4.72,3.31,8.65,7.24,13.64,10.27,8.84,5.37,15,13.13,22.35,20.18l14.95,14.35,21.5,24.31,15.75,18.66c8.21,9.73,3.98,14.61,6.96,25.3,2.31,8.28,7.55,16.7,15.98,20.07,9.46,3.78,19.99-.44,26.65-7.5l-12.98,3.24c-12.32,3.08-22.17-12.51-22.87-23.25,4.98,2.65,18.84,8.54,22.92,7.86,9.44-1.57,17.94-5.14,27.02-8.4l8.8,11.15c3.06-1.28,5.59-3.1,6.31-5.8ZM285.66,200.87c-.35,8.59,2.1,21.18-6.94,20.83-3.49-.13-6.37-2.79-6.4-6.75l-.14-14.69c-1.57-.47-2.79-.5-4.4-.2l.1,15.54c.04,6.3,5.34,9.62,11.19,9.47,5.18-.13,10.09-2.89,10.45-8.63.33-5.24.49-10.41.03-15.75-.09-1.02-3.83-1.38-3.89.18ZM317.3,224.27l.76-23.55c-1.08-.64-3.65-.88-4.31.06l-.34,16.52-13.85-16.83c-.83-1-2.77-.5-3.99-.4l-.02,24.51c1.57.27,2.87.23,4.33-.15l.35-16.53,11.96,14.43c1.34,1.61,2.64,3.32,5.12,1.94Z"/>
        <g>
          <path class="cls-1" d="M296.8,304.46c-.93,3.07-3.45,4.65-6.09,4.32-2.15-.26-4.72-1.95-5.54-4.64-1.93-6.34.3-12.76,3.03-18.77.6-1.33,1.72-4.19,3.64-3.61,3.14,6.8,7.32,14.94,4.97,22.7Z"/>
          <path class="cls-1" d="M262.26,274.12c-1.58,5-5.06,18.16-12.17,13.96-1.78-1.05-1.5-4.03-.96-5.78,1.82-5.89,16.68-28.21,20.39-23.06,1.47,2.05-4.39,5.77-7.26,14.87Z"/>
          <path class="cls-1" d="M333.38,286.16c-.89,1.02-2.41,1.18-3.42,1.02s-2.15-1.27-2.67-2.57l-5.16-12.84-7.29-11.32c-.4-.63-.16-1.52.01-1.92.21-.49,1.66-.98,2.25-.41,5.74,5.5,11.21,11.05,15.98,17.45,2.39,3.21,3.25,7.23.3,10.59Z"/>
          <path class="cls-1" d="M317.88,281.03c-6.31,2.79-11.98-12.33-13.99-16.71-.58-1.27-.21-2.96.84-3.69,2.84-1.97,12.45,7.03,14.31,9.62,2.32,3.24,3.4,8.77-1.16,10.79Z"/>
          <path class="cls-1" d="M274.64,276.68c-1.02,2.98-6.44,6.48-10.05,3.23-5.12-4.6,5.67-14.65,10.15-19.69.49-.55,1.72-.13,2.06.14,2.35,1.87-1.07,13.15-2.16,16.32Z"/>
          <path class="cls-1" d="M297.58,265.79c3.89-.45,12.11,23.06,6.44,24.58-6.93,1.86-10.39-24.13-6.44-24.58Z"/>
          <path class="cls-1" d="M288.24,268.72c-.59,5.47-1.08,23.8-7.22,23.04-7.86-.98,4.52-31.4,6.01-25.1.12.49,1.3,1.24,1.21,2.07Z"/>
          <path class="cls-1" d="M273.63,295.37c-1.64,2.36-4.3,3.45-6.64,2.52-1.58-.63-3.63-3.01-3.06-5.55,1.15-5.11,6.19-9.05,11.45-8.76.72,4.06.59,8.43-1.75,11.79Z"/>
          <path class="cls-1" d="M320.79,290.99c.63,2.53-.34,4.53-1.56,5.72-1.04,1.01-4,2.12-5.44.41-3.44-4.12-4.49-10.13-3.4-15.67,4.78,1.35,9.19,4.67,10.4,9.54Z"/>
        </g>
        <g>
          <path class="cls-1" d="M357.99,101.73c-1.89-.19-2.47,1.07-3.47,1.95-9.43,8.31-13.69,11.52-25.55,15.48-14.59,4.87-26.53,15.67-31.62,30.32,2.72,4.43,4.25,9.2,2.01,13.77-.78,1.59-2.72,2.65-2.19,4.44-2.33.41-2.97,2.13-5.43,2.33-3.53-3.16-7.82-6.89-9.03-11.53-.93-3.58,3.41-6.89,3.01-10.42-.51-4.46-3.76-9.15-6.45-12.83-3.91-5.34-9.72-8.84-15.73-11.43-11.92-5.14-36.18-16.88-40.44-29.78-2.74-8.3-3.54-17.1-2.74-25.77.08-.86.9-1.28,1.34-1.34,1.88-.29,4.19,8.83,8.27,13.34,17.19,19.03,17.28,14.24,32.95,25.62,9.01,6.55,22.53,16.72,28.09,27.16,11.55-13.77,24.47-24.92,39.81-33.35,7.08-3.89,13.42-8.47,19.35-13.89,3.57-3.26,6.36-7.37,8.97-11.37,1.97-3.03.28-9.8,4.27-9.6,1.32.07,2.22,1.55,1.98,3.12l-3.24,21.04c-1.5,9.72-4.39,8.55-4.17,12.73Z"/>
          <path class="cls-1" d="M300.86,115.25c-3,3.19-6.5,11.59-8.96,12.23-.73.19-2.08.2-2.63-.89-7.54-14.99-17.47-19.86-30.96-28.35-1.18-.74-2.67-.54-2.53-2.22.08-.95.87-2.34,2.39-2.56,17.27-2.43,48.99-1.76,65.99,1.48,1.11.21,1.8,1.06,1.88,1.89.1,1.07-.75,1.33-1.77,1.9-8.42,4.72-16.76,9.45-23.41,16.51Z"/>
          <path class="cls-1" d="M357.99,101.73c1.97-1.9,1.83-4.21,4.67-5.21-.18,9.79-2.6,19.32-8.6,27.01,1.32,8.68,1.9,24.14-4.26,31.04-12.13,13.56-33.6,14.13-46.85,2.16-.74-.66-.93-1.45-.59-1.94,1.09-1.58,7.16,3.68,12.09,4.58,6.16,1.12,12.72.2,18.17-2.38,6.92-3.27,10.15-9.11,11.16-16.35.92-6.62.85-12.9-3.6-18.81l8.06-6.49c4.54-3.66,8.39-8.17,9.76-13.61Z"/>
          <path class="cls-1" d="M266.68,159.64c4.6-1.07,8-4.32,12.41-4.92,1.42.34.05,2.78-1.24,3.76-9.81,7.49-23.71,10.15-35.4,5.11-8.13-3.5-14.47-11.63-14.36-19.82l.27-20.01c-2.58-8.27-8.17-15.78-7.25-25.59,3.16,6.13,5.91,12.58,11.85,15.95l10.65,6.05c-1.76,4.92-4.87,9.38-5.57,14.59-.84,6.26.03,12.45,4.26,17.16,2.4,2.68,5.31,5.62,8.74,6.92,4.81,1.84,10.4,2.01,15.63.8Z"/>
          <path class="cls-1" d="M258.34,146.77c8.31,3.95,17.22-2.34,18.09.32,1.17,3.57-11.76,6.23-14.29,6.58-9.08,1.26-17.29-5.14-17.56-14.47-.17-5.76,1.62-11.6,5.06-16.07,4.36.76,7.58,2.28,11.54,3.73-2.62,2.28-4.76,3.52-6.31,6.21-2.53,4.39-1.79,11.2,3.47,13.7Z"/>
          <path class="cls-1" d="M337.27,145.86c-5.38,10.84-29,8.05-28.28,1.16.21-2.03,10.86,6.22,18.73-2.63,2.5-2.81,2.35-6.26,1.7-9.89-.51-2.89-3.44-4.52-6.35-7.37,3.22-2.45,6.65-3.78,10.87-4.38,5.06,6.37,7.08,15.53,3.32,23.11Z"/>
        </g>
      </g>
    </g>
  </g>
</svg>