<?xml version="1.0" encoding="UTF-8" standalone="no"?><!DOCTYPE svg PUBLIC "-//W3C//DTD SVG 1.1//EN" "http://www.w3.org/Graphics/SVG/1.1/DTD/svg11.dtd"><svg width="100%" height="100%" viewBox="0 0 962 347" version="1.1" xmlns="http://www.w3.org/2000/svg" xmlns:xlink="http://www.w3.org/1999/xlink" xml:space="preserve" xmlns:serif="http://www.serif.com/" style="fill-rule:evenodd;clip-rule:evenodd;stroke-linejoin:round;stroke-miterlimit:2;"><path d="M922.335,290.411c0,5.429 1.538,9.696 4.608,12.821c3.092,3.125 6.938,4.675 11.579,4.675c4.733,0 8.625,-1.567 11.667,-4.721c3.054,-3.158 4.588,-7.625 4.588,-13.421c0,-3.667 -0.658,-6.862 -1.958,-9.587c-1.304,-2.742 -3.225,-4.862 -5.733,-6.367c-2.517,-1.508 -5.333,-2.246 -8.462,-2.246c-4.458,0 -8.279,1.442 -11.475,4.342c-3.212,2.9 -4.812,7.738 -4.812,14.504m-6.471,-0.092c0,-7.483 2.117,-13.325 6.342,-17.546c4.225,-4.229 9.692,-6.346 16.388,-6.346c4.371,0 8.321,1 11.846,2.979c3.508,1.996 6.196,4.758 8.033,8.312c1.854,3.546 2.771,7.588 2.771,12.075c0,4.567 -0.954,8.654 -2.9,12.25c-1.946,3.6 -4.7,6.325 -8.258,8.183c-3.571,1.854 -7.408,2.775 -11.525,2.775c-4.479,0 -8.467,-1.025 -11.975,-3.071c-3.521,-2.038 -6.196,-4.838 -8,-8.379c-1.812,-3.533 -2.721,-7.279 -2.721,-11.233m-25.312,21.908l0,-39.688l-15.638,0l0,-5.304l37.608,0l0,5.304l-15.7,0l0,39.688l-6.271,0Zm-29.429,-44.992l6.283,0l0,44.996l-6.283,0l0,-44.996Zm-31.733,44.992l-18.388,-44.992l6.808,0l12.333,32.696c0.992,2.617 1.817,5.079 2.483,7.362c0.738,-2.45 1.588,-4.904 2.567,-7.362l12.812,-32.696l6.408,0l-18.579,44.992l-6.446,0Zm-44.388,-18.475l16.096,0l-4.958,-12.454c-1.5,-3.783 -2.625,-6.896 -3.362,-9.342c-0.6,2.883 -1.446,5.75 -2.558,8.604l-5.217,13.192Zm-13.696,18.475l18.233,-44.992l6.767,0l19.425,44.992l-7.163,0l-5.542,-13.617l-19.842,0l-5.204,13.617l-6.675,0Zm-36.283,-25.133l13.504,0c2.867,0 5.112,-0.275 6.725,-0.842c1.633,-0.575 2.85,-1.471 3.7,-2.704c0.833,-1.233 1.254,-2.583 1.254,-4.042c0,-2.125 -0.8,-3.875 -2.45,-5.242c-1.613,-1.383 -4.192,-2.054 -7.712,-2.054l-15.021,0l0,14.883Zm-6.279,25.133l0,-44.992l21.038,0c4.237,0 7.45,0.404 9.646,1.208c2.208,0.804 3.967,2.233 5.279,4.271c1.321,2.058 1.971,4.329 1.971,6.792c0,3.204 -1.075,5.888 -3.263,8.071c-2.183,2.188 -5.55,3.592 -10.1,4.183c1.658,0.758 2.925,1.504 3.783,2.238c1.842,1.6 3.571,3.604 5.221,5.996l8.246,12.233l-7.887,0l-6.283,-9.35c-1.837,-2.692 -3.35,-4.779 -4.546,-6.208c-1.183,-1.425 -2.246,-2.433 -3.179,-3c-0.942,-0.575 -1.888,-0.971 -2.863,-1.208c-0.717,-0.137 -1.875,-0.208 -3.5,-0.208l-7.283,0l0,19.975l-6.279,0Zm-35.837,-18.475l16.087,0l-4.967,-12.454c-1.492,-3.783 -2.621,-6.896 -3.35,-9.342c-0.612,2.883 -1.458,5.75 -2.558,8.604l-5.212,13.192Zm-13.696,18.475l18.229,-44.992l6.771,0l19.425,44.992l-7.163,0l-5.542,-13.617l-19.846,0l-5.204,13.617l-6.671,0Zm-27.208,-19.875l0,-5.938l22.638,-0.046l0,18.808c-3.467,2.638 -7.062,4.604 -10.746,5.942c-3.704,1.317 -7.5,1.983 -11.392,1.983c-5.254,0 -10.029,-1.062 -14.317,-3.204c-4.288,-2.117 -7.533,-5.208 -9.717,-9.242c-2.188,-4.037 -3.283,-8.55 -3.283,-13.529c0,-4.933 1.096,-9.546 3.271,-13.813c2.163,-4.292 5.3,-7.462 9.383,-9.55c4.083,-2.058 8.787,-3.1 14.125,-3.1c3.854,0 7.354,0.6 10.479,1.792c3.121,1.175 5.579,2.829 7.342,4.954c1.783,2.137 3.138,4.892 4.062,8.304l-6.387,1.667c-0.812,-2.587 -1.813,-4.629 -2.983,-6.096c-1.208,-1.483 -2.904,-2.663 -5.121,-3.542c-2.2,-0.896 -4.671,-1.338 -7.354,-1.338c-3.25,0 -6.046,0.475 -8.396,1.404c-2.363,0.942 -4.258,2.163 -5.717,3.692c-1.429,1.521 -2.554,3.183 -3.371,5.017c-1.354,3.125 -2.042,6.521 -2.042,10.188c0,4.533 0.821,8.312 2.458,11.346c1.65,3.058 4.042,5.312 7.179,6.783c3.142,1.483 6.458,2.221 9.979,2.221c3.083,0 6.067,-0.571 8.979,-1.688c2.925,-1.108 5.133,-2.3 6.638,-3.579l0,-9.438l-15.708,0Zm-93.438,-1.942c0,5.429 1.542,9.696 4.608,12.821c3.096,3.125 6.938,4.675 11.583,4.675c4.725,0 8.617,-1.567 11.675,-4.721c3.042,-3.158 4.583,-7.625 4.583,-13.421c0,-3.667 -0.667,-6.862 -1.967,-9.587c-1.304,-2.742 -3.213,-4.862 -5.721,-6.367c-2.517,-1.508 -5.35,-2.246 -8.475,-2.246c-4.454,0 -8.262,1.442 -11.475,4.342c-3.208,2.9 -4.812,7.738 -4.812,14.504m-6.471,-0.092c0,-7.483 2.112,-13.325 6.342,-17.546c4.237,-4.229 9.692,-6.346 16.392,-6.346c4.371,0 8.333,1 11.842,2.979c3.512,1.996 6.2,4.758 8.05,8.312c1.837,3.546 2.754,7.588 2.754,12.075c0,4.567 -0.95,8.654 -2.904,12.25c-1.942,3.6 -4.7,6.325 -8.258,8.183c-3.571,1.854 -7.404,2.775 -11.521,2.775c-4.475,0 -8.462,-1.025 -11.975,-3.071c-3.533,-2.038 -6.196,-4.838 -8,-8.379c-1.817,-3.533 -2.721,-7.279 -2.721,-11.233m-15.438,-23.083l6.283,0l0,44.996l-6.283,0l0,-44.996Zm-38.2,44.992l0,-44.992l6.275,0l0,39.696l23.367,0l0,5.296l-29.642,0Zm-16.479,-44.992l6.279,0l0,26.004c0,4.521 -0.538,8.108 -1.625,10.771c-1.083,2.675 -3.021,4.821 -5.837,6.487c-2.817,1.679 -6.517,2.504 -11.092,2.504c-4.442,0 -8.083,-0.725 -10.9,-2.175c-2.829,-1.45 -4.85,-3.558 -6.05,-6.308c-1.225,-2.763 -1.821,-6.508 -1.821,-11.279l0,-26.004l6.283,0l0,25.971c0,3.908 0.383,6.796 1.146,8.642c0.767,1.846 2.088,3.275 3.942,4.279c1.875,1.008 4.15,1.508 6.85,1.508c4.621,0 7.917,-0.996 9.875,-2.992c1.958,-1.971 2.95,-5.783 2.95,-11.438l0,-25.971Zm-71.454,30.617l6.383,-0.829c0.167,3.871 0.933,6.525 2.292,7.958c1.375,1.429 3.25,2.129 5.654,2.129c1.787,0 3.317,-0.371 4.596,-1.154c1.3,-0.767 2.179,-1.808 2.658,-3.133c0.487,-1.338 0.742,-3.458 0.742,-6.35l0,-34.95l7.067,0l0,34.562c0,4.246 -0.538,7.538 -1.621,9.858c-1.075,2.321 -2.796,4.104 -5.138,5.325c-2.35,1.221 -5.112,1.833 -8.262,1.833c-4.688,0 -8.287,-1.279 -10.792,-3.837c-2.479,-2.558 -3.675,-6.362 -3.579,-11.412m465.538,-83.229l16.092,0l-4.95,-12.463c-1.504,-3.796 -2.642,-6.892 -3.371,-9.342c-0.608,2.9 -1.454,5.75 -2.554,8.604l-5.217,13.2Zm-13.696,18.483l18.233,-45.008l6.754,0l19.425,45.008l-7.146,0l-5.542,-13.633l-19.846,0l-5.204,13.633l-6.675,0Zm-13.75,-47.788l4.296,-8.587l7.642,0l-7.121,8.587l-4.817,0Zm1.621,2.779l6.279,0l0,45.012l-6.279,0l0,-45.012Zm-42.575,19.854l13.504,0c2.862,0 5.108,-0.279 6.725,-0.846c1.633,-0.562 2.854,-1.458 3.7,-2.696c0.833,-1.242 1.25,-2.579 1.25,-4.037c0,-2.133 -0.808,-3.875 -2.446,-5.242c-1.625,-1.387 -4.192,-2.063 -7.725,-2.063l-15.008,0l0,14.883Zm-6.279,25.154l0,-45.008l21.038,0c4.237,0 7.45,0.408 9.642,1.208c2.2,0.808 3.967,2.233 5.283,4.283c1.325,2.05 1.967,4.312 1.967,6.783c0,3.192 -1.088,5.875 -3.267,8.071c-2.175,2.183 -5.542,3.579 -10.104,4.188c1.675,0.75 2.942,1.496 3.792,2.233c1.846,1.596 3.579,3.592 5.225,5.988l8.246,12.254l-7.9,0l-6.267,-9.375c-1.846,-2.696 -3.358,-4.767 -4.554,-6.196c-1.179,-1.438 -2.246,-2.433 -3.175,-3c-0.946,-0.575 -1.9,-0.971 -2.862,-1.212c-0.717,-0.138 -1.875,-0.217 -3.496,-0.217l-7.287,0l0,20l-6.279,0Zm-44.188,0l0,-45.008l34.304,0l0,5.308l-28.021,0l0,13.775l26.254,0l0,5.283l-26.254,0l0,15.321l29.129,0l0,5.321l-35.413,0Zm-17.479,-45.008l6.267,0l0,45.012l-6.267,0l0,-45.012Zm-49.021,45.008l0,-45.008l6.446,0l24.929,35.325l0,-35.325l6.021,0l0,45.008l-6.45,0l-24.925,-35.375l0,35.375l-6.021,0Zm-44.021,0l0,-45.008l34.317,0l0,5.308l-28.033,0l0,13.775l26.238,0l0,5.283l-26.238,0l0,15.321l29.129,0l0,5.321l-35.413,0Zm-29.5,-17.662l0,-5.267l20.108,-0.029l0,16.688c-3.083,2.329 -6.271,4.083 -9.554,5.275c-3.271,1.179 -6.65,1.754 -10.087,1.754c-4.671,0 -8.908,-0.938 -12.717,-2.842c-3.804,-1.883 -6.683,-4.629 -8.629,-8.2c-1.933,-3.588 -2.917,-7.587 -2.917,-12.013c0,-4.383 0.983,-8.467 2.917,-12.262c1.908,-3.804 4.7,-6.617 8.321,-8.475c3.629,-1.829 7.796,-2.746 12.533,-2.746c3.429,0 6.533,0.521 9.304,1.583c2.767,1.046 4.954,2.517 6.521,4.392c1.575,1.892 2.779,4.342 3.6,7.375l-5.671,1.483c-0.717,-2.296 -1.6,-4.096 -2.65,-5.412c-1.062,-1.312 -2.579,-2.367 -4.55,-3.15c-1.946,-0.779 -4.129,-1.175 -6.529,-1.175c-2.862,0 -5.35,0.417 -7.438,1.242c-2.1,0.825 -3.783,1.917 -5.075,3.275c-1.275,1.35 -2.275,2.833 -2.996,4.45c-1.204,2.771 -1.812,5.792 -1.812,9.058c0,4.008 0.742,7.371 2.192,10.062c1.458,2.713 3.575,4.713 6.367,6.029c2.779,1.3 5.729,1.971 8.862,1.971c2.729,0 5.379,-0.512 7.958,-1.508c2.604,-0.988 4.562,-2.046 5.896,-3.183l0,-8.375l-13.954,0Zm-70.142,17.662l0,-45.008l6.438,0l24.929,35.325l0,-35.325l6.025,0l0,45.008l-6.446,0l-24.925,-35.375l0,35.375l-6.021,0Zm-18.838,-50.704l7.079,0l0,50.708l-7.079,0l0,-50.708Zm-66.692,50.704l0,-45.008l34.312,0l0,5.308l-28.033,0l0,13.775l26.254,0l0,5.283l-26.254,0l0,15.321l29.133,0l0,5.321l-35.412,0Zm-41.738,-5.321l10.129,0c3.129,0 5.592,-0.275 7.371,-0.825c1.779,-0.562 3.2,-1.325 4.25,-2.338c1.504,-1.4 2.663,-3.312 3.483,-5.696c0.825,-2.387 1.246,-5.263 1.246,-8.671c0,-4.713 -0.813,-8.321 -2.433,-10.846c-1.638,-2.538 -3.608,-4.217 -5.95,-5.092c-1.671,-0.604 -4.392,-0.913 -8.117,-0.913l-9.979,0l0,34.379Zm-6.271,5.321l0,-45.008l16.333,0c3.688,0 6.508,0.213 8.454,0.646c2.721,0.583 5.05,1.663 6.958,3.217c2.508,2.012 4.383,4.575 5.625,7.688c1.242,3.121 1.862,6.687 1.862,10.696c0,3.421 -0.421,6.458 -1.279,9.096c-0.833,2.633 -1.908,4.833 -3.238,6.558c-1.308,1.729 -2.746,3.088 -4.321,4.071c-1.554,0.996 -3.437,1.758 -5.646,2.267c-2.221,0.521 -4.767,0.771 -7.625,0.771l-17.125,0Zm412.387,-97.629l16.104,0l-4.967,-12.45c-1.487,-3.787 -2.621,-6.908 -3.354,-9.346c-0.608,2.887 -1.454,5.754 -2.562,8.592l-5.221,13.204Zm-13.683,18.492l18.233,-45.017l6.754,0l19.429,45.017l-7.167,0l-5.525,-13.642l-19.858,0l-5.196,13.642l-6.671,0Zm-42.729,0l0,-45.017l6.433,0l24.929,35.337l0,-35.337l6.029,0l0,45.017l-6.446,0l-24.929,-35.371l0,35.371l-6.017,0Zm-35.683,-18.492l16.104,0l-4.967,-12.45c-1.504,-3.787 -2.629,-6.908 -3.35,-9.346c-0.617,2.887 -1.475,5.754 -2.575,8.592l-5.213,13.204Zm-13.688,18.492l18.221,-45.017l6.771,0l19.425,45.017l-7.163,0l-5.529,-13.642l-19.854,0l-5.196,13.642l-6.675,0Zm-12.142,-45.017l6.279,0l0,45.021l-6.279,0l0,-45.021Zm-39.267,39.696l11.808,0c2.042,0 3.462,-0.071 4.283,-0.204c1.446,-0.263 2.654,-0.667 3.621,-1.233c0.967,-0.575 1.767,-1.404 2.4,-2.492c0.621,-1.108 0.929,-2.367 0.929,-3.804c0,-1.675 -0.45,-3.125 -1.346,-4.371c-0.908,-1.25 -2.163,-2.121 -3.783,-2.617c-1.6,-0.5 -3.921,-0.746 -6.938,-0.746l-10.975,0l0,15.467Zm0,-20.779l10.271,0c2.767,0 4.775,-0.179 5.979,-0.517c1.6,-0.454 2.808,-1.204 3.608,-2.242c0.808,-1.054 1.217,-2.371 1.217,-3.946c0,-1.479 -0.383,-2.804 -1.138,-3.938c-0.75,-1.129 -1.833,-1.913 -3.233,-2.333c-1.396,-0.417 -3.808,-0.621 -7.225,-0.621l-9.479,0l0,13.596Zm-6.287,26.1l0,-45.017l17.808,0c3.633,0 6.533,0.462 8.717,1.367c2.208,0.908 3.917,2.313 5.154,4.217c1.233,1.875 1.867,3.858 1.867,5.929c0,1.925 -0.546,3.737 -1.658,5.438c-1.087,1.696 -2.762,3.067 -4.979,4.121c2.875,0.792 5.075,2.15 6.612,4.071c1.55,1.929 2.329,4.204 2.329,6.821c0,2.104 -0.479,4.067 -1.421,5.887c-0.933,1.812 -2.1,3.204 -3.475,4.188c-1.383,0.975 -3.125,1.721 -5.192,2.221c-2.079,0.5 -4.633,0.758 -7.667,0.758l-18.096,0Zm-55.163,0l0,-45.017l9.454,0l11.238,31.871c1.038,2.967 1.8,5.187 2.254,6.658c0.55,-1.629 1.383,-4.042 2.533,-7.213l11.367,-31.317l8.454,0l0,45.017l-6.058,0l0,-37.683l-13.8,37.683l-5.658,0l-13.729,-38.317l0,38.317l-6.054,0Zm-46.808,-21.842c0,5.433 1.538,9.704 4.617,12.817c3.079,3.125 6.938,4.688 11.571,4.688c4.737,0 8.617,-1.575 11.671,-4.717c3.046,-3.163 4.587,-7.638 4.587,-13.433c0,-3.654 -0.667,-6.85 -1.971,-9.587c-1.3,-2.729 -3.208,-4.846 -5.717,-6.367c-2.525,-1.496 -5.333,-2.242 -8.463,-2.242c-4.454,0 -8.279,1.446 -11.492,4.35c-3.192,2.888 -4.804,7.729 -4.804,14.492m-6.475,-0.087c0,-7.475 2.117,-13.321 6.354,-17.542c4.221,-4.221 9.679,-6.342 16.379,-6.342c4.367,0 8.329,0.996 11.842,2.979c3.521,1.992 6.213,4.758 8.046,8.313c1.854,3.529 2.758,7.575 2.758,12.067c0,4.575 -0.95,8.65 -2.896,12.254c-1.95,3.6 -4.692,6.325 -8.267,8.188c-3.558,1.842 -7.404,2.771 -11.517,2.771c-4.471,0 -8.471,-1.017 -11.975,-3.071c-3.525,-2.046 -6.187,-4.838 -8,-8.387c-1.817,-3.533 -2.725,-7.283 -2.725,-11.229m-35.221,21.929l0,-45.017l6.283,0l0,39.696l23.375,0l0,5.321l-29.658,0Zm-46.742,-21.842c0,5.433 1.529,9.704 4.608,12.817c3.083,3.125 6.937,4.688 11.571,4.688c4.729,0 8.621,-1.575 11.675,-4.717c3.042,-3.163 4.588,-7.638 4.588,-13.433c0,-3.654 -0.671,-6.85 -1.971,-9.587c-1.3,-2.729 -3.212,-4.846 -5.721,-6.367c-2.521,-1.496 -5.338,-2.242 -8.462,-2.242c-4.458,0 -8.275,1.446 -11.488,4.35c-3.2,2.888 -4.8,7.729 -4.8,14.492m-6.483,-0.087c0,-7.475 2.117,-13.321 6.354,-17.542c4.225,-4.221 9.683,-6.342 16.379,-6.342c4.383,0 8.329,0.996 11.846,2.979c3.504,1.992 6.204,4.758 8.042,8.313c1.854,3.529 2.771,7.575 2.771,12.067c0,4.575 -0.967,8.65 -2.908,12.254c-1.946,3.6 -4.692,6.325 -8.25,8.188c-3.571,1.842 -7.417,2.771 -11.525,2.771c-4.492,0 -8.475,-1.017 -11.988,-3.071c-3.521,-2.046 -6.183,-4.838 -8,-8.387c-1.812,-3.533 -2.721,-7.283 -2.721,-11.229m-13.229,4.142l7.083,1.7c-1.483,5.5 -4.171,9.712 -8.012,12.613c-3.854,2.883 -8.558,4.333 -14.133,4.333c-5.771,0 -10.45,-1.117 -14.054,-3.337c-3.617,-2.217 -6.362,-5.446 -8.25,-9.671c-1.871,-4.213 -2.821,-8.75 -2.821,-13.583c0,-5.279 1.054,-9.888 3.179,-13.817c2.137,-3.942 5.158,-6.929 9.1,-8.971c3.913,-2.033 8.233,-3.054 12.95,-3.054c5.358,0 9.85,1.292 13.492,3.871c3.654,2.583 6.196,6.204 7.629,10.896l-6.958,1.558c-1.258,-3.687 -3.046,-6.371 -5.408,-8.062c-2.354,-1.683 -5.317,-2.521 -8.896,-2.521c-4.108,0 -7.533,0.929 -10.304,2.792c-2.758,1.883 -4.704,4.387 -5.8,7.533c-1.125,3.138 -1.696,6.383 -1.696,9.725c0,4.325 0.667,8.083 1.992,11.3c1.325,3.217 3.383,5.617 6.188,7.217c2.792,1.596 5.825,2.388 9.083,2.388c3.963,0 7.304,-1.088 10.05,-3.25c2.758,-2.171 4.612,-5.4 5.587,-9.658m240.575,-79.842l16.108,-0l-4.971,-12.463c-1.504,-3.783 -2.625,-6.896 -3.358,-9.329c-0.608,2.883 -1.467,5.75 -2.562,8.604l-5.217,13.188Zm-13.696,18.483l18.246,-45.008l6.754,0l19.425,45.008l-7.158,0l-5.533,-13.633l-19.854,0l-5.204,13.633l-6.675,0Zm-31.912,0l0,-45.008l6.279,0l0,39.696l23.379,0l0,5.312l-29.658,0Zm-43.825,0l0,-45.008l34.312,0l0,5.317l-28.033,0l0,13.775l26.25,0l0,5.287l-26.25,0l0,15.317l29.129,0l0,5.312l-35.408,0Zm-16.875,-45.008l6.279,0l0,26.008c0,4.517 -0.533,8.117 -1.621,10.779c-1.075,2.658 -3.033,4.812 -5.842,6.487c-2.817,1.675 -6.517,2.5 -11.088,2.5c-4.442,0 -8.079,-0.721 -10.9,-2.183c-2.829,-1.438 -4.858,-3.546 -6.05,-6.304c-1.225,-2.754 -1.817,-6.512 -1.817,-11.279l0,-26.008l6.267,0l0,25.983c0,3.908 0.396,6.783 1.158,8.629c0.763,1.854 2.079,3.288 3.942,4.292c1.875,0.996 4.154,1.508 6.85,1.508c4.621,0 7.917,-0.996 9.871,-2.992c1.958,-1.979 2.95,-5.783 2.95,-11.437l0,-25.983Zm-45.162,29.233l6.292,1.504c-1.325,4.883 -3.704,8.621 -7.104,11.192c-3.425,2.571 -7.604,3.846 -12.562,3.846c-5.121,0 -9.258,-0.983 -12.475,-2.954c-3.2,-1.983 -5.646,-4.846 -7.304,-8.583c-1.675,-3.75 -2.508,-7.779 -2.508,-12.071c0,-4.683 0.929,-8.775 2.817,-12.262c1.9,-3.487 4.571,-6.15 8.071,-7.958c3.487,-1.812 7.321,-2.721 11.513,-2.721c4.737,0 8.737,1.163 11.971,3.45c3.242,2.296 5.483,5.508 6.758,9.667l-6.175,1.392c-1.108,-3.283 -2.696,-5.663 -4.796,-7.167c-2.092,-1.492 -4.712,-2.242 -7.904,-2.242c-3.642,0 -6.683,0.833 -9.137,2.492c-2.442,1.662 -4.175,3.883 -5.154,6.679c-1,2.783 -1.492,5.671 -1.492,8.642c0,3.833 0.583,7.167 1.754,10.029c1.183,2.846 3,4.983 5.492,6.4c2.483,1.412 5.171,2.117 8.058,2.117c3.525,0 6.496,-0.967 8.946,-2.887c2.433,-1.925 4.083,-4.779 4.942,-8.562m-80.208,1.312l5.925,-0.496c0.275,2.267 0.921,4.1 1.942,5.55c1.042,1.446 2.629,2.613 4.779,3.496c2.158,0.896 4.588,1.342 7.283,1.342c2.396,0 4.508,-0.342 6.346,-1.012c1.829,-0.679 3.204,-1.608 4.1,-2.775c0.896,-1.188 1.35,-2.467 1.35,-3.863c0,-1.412 -0.433,-2.637 -1.312,-3.7c-0.863,-1.054 -2.283,-1.937 -4.25,-2.638c-1.292,-0.479 -4.096,-1.212 -8.467,-2.208c-4.346,-0.996 -7.417,-1.925 -9.158,-2.808c-2.267,-1.121 -3.95,-2.525 -5.075,-4.192c-1.096,-1.662 -1.658,-3.529 -1.658,-5.604c0,-2.263 0.679,-4.392 2.042,-6.363c1.358,-1.979 3.346,-3.487 5.958,-4.504c2.612,-1.021 5.504,-1.546 8.704,-1.546c3.521,0 6.613,0.546 9.312,1.633c2.683,1.062 4.75,2.637 6.196,4.733c1.446,2.083 2.217,4.45 2.333,7.092l-6.021,0.429c-0.325,-2.846 -1.425,-5.008 -3.287,-6.446c-1.875,-1.458 -4.617,-2.183 -8.271,-2.183c-3.796,0 -6.567,0.667 -8.312,1.979c-1.729,1.325 -2.6,2.912 -2.6,4.767c0,1.629 0.621,2.958 1.837,3.996c1.217,1.054 4.367,2.121 9.471,3.208c5.108,1.1 8.617,2.058 10.512,2.875c2.762,1.212 4.796,2.742 6.117,4.583c1.313,1.858 1.967,4 1.967,6.4c0,2.408 -0.713,4.667 -2.158,6.771c-1.446,2.129 -3.533,3.771 -6.229,4.95c-2.713,1.179 -5.771,1.763 -9.138,1.763c-4.308,0 -7.917,-0.583 -10.804,-1.775c-2.9,-1.192 -5.179,-2.967 -6.842,-5.367c-1.646,-2.379 -2.521,-5.075 -2.592,-8.088m-46.896,14.463l0,-50.704l38.658,0l0,5.987l-31.588,0l0,15.517l29.579,0l0,5.954l-29.579,0l0,17.267l32.829,0l0,5.979l-39.9,0Z" style="fill:#fff;"/><path d="M159.945,332.926c-0.483,0 -0.967,-0.192 -1.325,-0.571c-0.696,-0.729 -0.671,-1.887 0.058,-2.587l187.563,-178.767c0.733,-0.696 1.892,-0.671 2.592,0.067c0.696,0.729 0.671,1.887 -0.062,2.587l-187.562,178.763c-0.354,0.338 -0.808,0.508 -1.262,0.508" style="fill:#fff;fill-rule:nonzero;"/><path d="M190.914,332.926l-30.971,0c-1.013,0 -1.829,-0.821 -1.829,-1.829c0,-1.012 0.817,-1.833 1.829,-1.833l30.054,0l155.679,-207.304l0,-30.117c0,-1.013 0.817,-1.833 1.829,-1.833c1.012,0 1.829,0.821 1.829,1.833l0,30.729c0,0.396 -0.125,0.783 -0.363,1.1l-156.592,208.521c-0.346,0.463 -0.892,0.733 -1.467,0.733" style="fill:#fff;fill-rule:nonzero;"/><path d="M322.27,144.159l-53.746,103l35.783,-17.067l17.962,-85.933Zm-56.567,108.404l-18.821,36.063l47.046,-8.879l9.438,-45.146l-37.662,17.963Zm-5.5,2.621l-107.317,51.192l89.417,-16.883l17.9,-34.308Zm-163.392,77.742c-0.688,0 -1.342,-0.383 -1.654,-1.042c-0.438,-0.917 -0.05,-2.008 0.863,-2.442l29.854,-14.242l-91.25,17.229c-0.971,0.183 -1.95,-0.467 -2.138,-1.458c-0.188,-0.996 0.462,-1.95 1.458,-2.142l104.862,-19.796l124.217,-59.25l62.008,-118.829l20.596,-98.546c0.212,-0.996 1.188,-1.629 2.171,-1.421c0.988,0.208 1.621,1.179 1.417,2.167l-17.942,85.838l14.608,-27.996c0.467,-0.892 1.571,-1.246 2.471,-0.779c0.896,0.471 1.242,1.575 0.775,2.471l-20.617,39.513l-20.046,95.908l38.254,-18.246c0.913,-0.438 2.004,-0.05 2.438,0.863c0.438,0.912 0.046,2.008 -0.863,2.442l-40.775,19.446l-9.7,46.396l49.346,-9.317c0.971,-0.188 1.95,0.467 2.138,1.463c0.188,0.992 -0.463,1.95 -1.458,2.137l-50.833,9.596l-10.154,48.583c-0.212,0.988 -1.2,1.621 -2.171,1.417c-0.988,-0.208 -1.621,-1.179 -1.413,-2.167l9.842,-47.096l-48.387,9.137l-19.933,38.196c-0.462,0.887 -1.562,1.242 -2.471,0.775c-0.896,-0.471 -1.242,-1.575 -0.775,-2.471l18.596,-35.633l-100.192,18.913l-42.358,20.204c-0.254,0.125 -0.521,0.179 -0.783,0.179" style="fill:#fff;fill-rule:nonzero;"/><path d="M170.935,299.642l-74.138,23.675l45.75,-4.35l28.387,-19.325Zm-42.954,33.283l-31.175,0c-1.013,0 -1.829,-0.817 -1.829,-1.829c0,-1.012 0.817,-1.833 1.829,-1.833l30.613,0l8.846,-6.021l-55.867,5.308l-13.425,4.287c-0.183,0.058 -0.371,0.087 -0.558,0.087l-32.129,0c-0.979,0 -1.783,-0.767 -1.829,-1.746c-0.046,-0.975 0.683,-1.817 1.654,-1.908l45.55,-4.329l101.908,-32.542l164.104,-111.712l0,-28.358c0,-1.013 0.821,-1.833 1.833,-1.833c1.013,0 1.829,0.821 1.829,1.833l0,29.329c0,0.604 -0.3,1.171 -0.8,1.513l-154.708,105.317l151.846,-48.488l0,-28.483c0,-1.012 0.821,-1.833 1.833,-1.833c1.013,0 1.829,0.821 1.829,1.833l0,29.821c0,0.796 -0.517,1.5 -1.271,1.742l-164.875,52.65l-33.079,22.517l195.562,-18.583l0,-28.171c0,-1.013 0.821,-1.829 1.833,-1.829c1.013,0 1.829,0.817 1.829,1.829l0,29.833c0,0.946 -0.717,1.733 -1.658,1.825l-203.846,19.371l-14.821,10.088c-0.3,0.204 -0.658,0.317 -1.029,0.317" style="fill:#fff;fill-rule:nonzero;"/><path d="M365.007,303.463c-1.012,0 -1.829,-0.821 -1.829,-1.829l0,-299.8c0,-1.012 0.817,-1.833 1.829,-1.833c1.012,0 1.829,0.821 1.829,1.833l0,299.8c0,1.008 -0.817,1.829 -1.829,1.829" style="fill:#fff;fill-rule:nonzero;"/><path d="M382.213,346.582l-380.383,0c-1.008,0 -1.829,-0.821 -1.829,-1.829c0,-1.012 0.821,-1.833 1.829,-1.833l380.383,0c1.012,0 1.829,0.821 1.829,1.833c0,1.008 -0.817,1.829 -1.829,1.829" style="fill:#fff;fill-rule:nonzero;"/><path d="M316.63,332.926l-31.562,0c-1.012,0 -1.833,-0.821 -1.833,-1.829c0,-1.013 0.821,-1.833 1.833,-1.833l29.913,0l24.554,-237.596l-83.413,240.029c-0.258,0.733 -0.95,1.229 -1.729,1.229l-31.279,0c-1.013,0 -1.829,-0.821 -1.829,-1.829c0,-1.013 0.817,-1.833 1.829,-1.833l29.975,0l88.088,-253.471l4.512,-43.642c0.1,-0.971 1.025,-1.679 1.913,-1.642c0.975,0.05 1.737,0.858 1.737,1.829l0,30.808c0,0.208 -0.033,0.413 -0.1,0.6l-4.463,12.846l-26.325,254.688c-0.096,0.937 -0.883,1.646 -1.821,1.646" style="fill:#fff;fill-rule:nonzero;"/></svg>