<?xml version="1.0" encoding="UTF-8" standalone="no"?><!DOCTYPE svg PUBLIC "-//W3C//DTD SVG 1.1//EN" "http://www.w3.org/Graphics/SVG/1.1/DTD/svg11.dtd"><svg width="100%" height="100%" viewBox="0 0 1250 780" version="1.1" xmlns="http://www.w3.org/2000/svg" xmlns:xlink="http://www.w3.org/1999/xlink" xml:space="preserve" xmlns:serif="http://www.serif.com/" style="fill-rule:evenodd;clip-rule:evenodd;stroke-linejoin:round;stroke-miterlimit:2;"><g><g><g><g><g><g><g id="solve_5_"><path d="M1200.417,368.503l-99.5,-0.013c43.842,32.729 68.621,66.737 73.675,101.087c4.021,27.471 -4.579,55.233 -25.558,82.525l-0.846,1.1c-38.142,48.633 -115.996,85.383 -147.708,98.925c-3.583,1.092 -7.183,2.158 -10.821,3.221l210.758,0c27.346,0 49.583,-22.346 49.583,-49.808l0,-187.238c0,-27.462 -22.237,-49.8 -49.583,-49.8Z" style="fill:#fff;fill-rule:nonzero;"/><path d="M1078.529,370.257l-2.3,-1.758l-136.7,0c-27.333,0 -49.571,22.346 -49.571,49.804l0,187.233c0,27.471 22.237,49.817 49.571,49.817l0.742,0l5.663,-1.879c127.192,-42.083 208.775,-105.85 212.892,-166.429c4.175,-60.987 -71.629,-111.258 -80.296,-116.787Z" style="fill:#fff;fill-rule:nonzero;"/><path id="Bill_4_" d="M1186.288,135.194c1.371,-8.042 2.067,-16.042 2.067,-23.767c0,-38.15 -16.625,-69.279 -48.092,-90.017c-42.088,-27.733 -102.513,-28.629 -143.667,-2.079c-31.929,20.587 -48.8,53.796 -48.8,96.021c0,8.812 0.775,18.117 2.283,27.667c7.225,45.267 29.783,82.971 67.121,112.225c-18.975,-5.146 -43.762,-7.604 -54.492,9.804c-5.283,8.571 -3.992,16.883 3.462,22.233c13.8,9.9 47.333,7.279 67.583,-4.304l-13.896,32.379l93.304,0l-18.662,-37.337c22.575,9.438 48.746,17.967 62.883,9.346c5.746,-3.504 8.871,-9.208 9.275,-16.95c0.529,-10.404 -4.213,-16.012 -8.287,-18.879c-7.117,-5.038 -18.754,-6.3 -34.658,-3.733c1.646,-1.346 3.221,-2.692 4.779,-4.075c21.15,-18.842 48.342,-52.958 57.796,-108.533Zm-213.246,142.537c-1.346,-0.962 -3,-2.175 -0.312,-6.521c8.083,-13.175 35.096,-8.121 57.058,0.613c-16.896,11.229 -48,12.196 -56.746,5.908Zm178.571,-16.596c1.683,1.196 3.583,3.258 3.312,8.65c-0.217,3.75 -1.383,6.138 -3.667,7.538c-5.325,3.258 -18.988,3.9 -53.538,-10.688c21.079,-7.021 44.996,-11.762 53.892,-5.5Zm-68.708,-1.688c-1.412,0.558 -2.471,0.979 -2.975,1.183l-4.117,1.425l-1.971,0.962l0.067,0.121l-6.792,2.812l10.525,4.712l16.487,32.933l-56.417,0l16.242,-37.892l-5.908,-3.517c-49.138,-29.158 -78.204,-69.879 -86.35,-121.025c-1.4,-8.813 -2.121,-17.438 -2.121,-25.671c0,-38.137 15.008,-67.975 43.392,-86.283c37.404,-24.121 92.438,-23.292 130.804,2.008c28.004,18.471 42.796,46.258 42.796,80.375c0,6.954 -0.638,14.233 -1.888,21.633c-15.133,89.117 -79.033,120.75 -91.775,126.221Z" style="fill:#fff;fill-rule:nonzero;"/><path d="M1095.921,366.182l-0.808,-0.562c-0.013,-0.012 -0.15,-0.079 -0.367,-0.217c-3.342,-1.942 -28.454,-17.654 -33.858,-50.05l-12.675,0c0.654,6.913 4.471,31.875 25.954,50.05c0.317,0.271 0.662,0.525 0.996,0.787c0.487,0.387 0.971,0.775 1.462,1.158l1.904,0l17.017,-0.012l2.021,0l-1.646,-1.154Z" style="fill:#fff;fill-rule:nonzero;"/></g><g id="create_4_"><path d="M756.246,368.511l-17.871,0l-0.079,1.925c-1.471,40.308 -19.046,65.296 -33.596,79.188c-14.046,13.417 -27.825,19.317 -30.983,19.896l-8.342,57.8l-81.342,0l-7.138,-57.337c-61.192,-23.454 -63.521,-87.762 -64.204,-100.421l-0.046,-1.062l-17.933,0.012c-27.408,0 -49.712,22.396 -49.712,49.925l0,187.696c0,25.092 18.575,45.717 42.596,49.221l275.767,0c24.025,-3.504 42.592,-24.129 42.592,-49.221l0,-187.696c-0,-27.529 -22.296,-49.925 -49.708,-49.925Zm-171.283,172.446l80.867,0l0,11.925l-80.867,0l0,-11.925Zm0,22.846l80.867,0l0,11.925l-80.867,0l0,-11.925Zm55.746,57.617l-31.846,0l0,-11.925l31.846,0l0,11.925Zm25.342,-22.846l-80.867,0l0,-11.925l80.867,0l0,11.925Z" style="fill:#fff;fill-rule:nonzero;"/><path d="M583.746,427.169l46.354,-18.975l-39.821,-12.142l27.979,-25.642l1.863,-1.913l-92.246,0l0,1.913c0.637,11.496 2.483,68.346 59.554,89.721l1.1,0.404l0.15,1.158l6.6,52.071l24.096,0l0,-62.892l12.767,-10.496l-48.396,-13.208Z" style="fill:#fff;fill-rule:nonzero;"/><path d="M637.092,368.49l-1.629,1.925l-20.7,19.796l53.321,14.958l-47.683,19.592l37.446,10.496l-26.05,21.237l0,57.271l21.962,0l7.604,-53.604l1.017,-0.433c56.987,-23.783 60.967,-78.346 61.171,-89.317l0,-1.925l-86.458,0l0,0.004Z" style="fill:#fff;fill-rule:nonzero;"/><path d="M811.77,277.734l5.258,10.518l-82.264,41.127l-5.258,-10.518l82.264,-41.127Z" style="fill:#fff;"/><path d="M774.678,219.392l7.811,8.794l-73.832,65.585l-7.811,-8.794l73.832,-65.585Z" style="fill:#fff;"/><path d="M703.625,171.686l10.802,4.668l-38.984,90.213l-10.802,-4.668l38.984,-90.213Z" style="fill:#fff;"/><rect x="619.592" y="153.399" width="11.763" height="100.913" style="fill:#fff;"/><path d="M548.163,173.478l-0.775,-1.779l-10.812,4.671l38.208,88.417l0.787,1.792l10.796,-4.671l-38.204,-88.429Z" style="fill:#fff;fill-rule:nonzero;"/><path d="M476.199,219.429l73.921,65.487l-7.8,8.804l-73.921,-65.487l7.8,-8.804Z" style="fill:#fff;"/><path d="M439.233,277.759l82.283,41.082l-5.252,10.52l-82.283,-41.082l5.252,-10.52Z" style="fill:#fff;"/></g><g><path id="_x34__4_" d="M208.067,701.349c-16.975,0 -30.775,11.45 -30.775,25.533c0,14.083 13.8,25.533 30.775,25.533c16.975,0 30.792,-11.45 30.792,-25.533c-0,-14.083 -13.813,-25.533 -30.792,-25.533Zm0,41.246c-11.558,0 -20.954,-7.05 -20.954,-15.712c0,-8.667 9.4,-15.712 20.954,-15.712c11.558,0 20.971,7.05 20.971,15.712c-0,8.667 -9.413,15.712 -20.971,15.712Z" style="fill:#fff;fill-rule:nonzero;"/><path id="_x33__4_" d="M170.95,746.132c-1.213,-11.929 -13.371,-20.496 -27.092,-19.1c-13.733,1.396 -23.904,12.229 -22.692,24.158c1.171,11.5 12.483,18.792 26.908,17.325c14.417,-1.467 24.046,-10.883 22.875,-22.383Zm-23.771,13.529c-7.6,0.771 -16.112,-1.837 -16.883,-9.396c-0.717,-7.042 5.771,-13.492 14.467,-14.379c8.683,-0.883 16.338,4.129 17.05,11.175c0.767,7.554 -7.05,11.829 -14.633,12.6Z" style="fill:#fff;fill-rule:nonzero;"/><path id="_x32__4_" d="M90.838,746.182c-13.517,0 -21.896,6.354 -21.896,16.579c0,10.229 8.383,16.579 21.896,16.579c13.5,0 21.888,-6.354 21.888,-16.579c0,-10.229 -8.388,-16.579 -21.888,-16.579Zm-0.012,24.358c-6.067,0 -13.317,-1.337 -13.317,-7.779c0,-6.425 7.25,-7.762 13.317,-7.762c6.079,0 13.329,1.337 13.329,7.762c0,6.442 -7.25,7.779 -13.329,7.779Z" style="fill:#fff;fill-rule:nonzero;"/><path d="M396.638,560.707c-0.967,-16.379 -11.95,-31.658 -32.596,-45.429c-0.271,-0.175 -0.508,-0.367 -0.775,-0.554c-0.042,-0.029 -0.075,-0.058 -0.121,-0.087l-1.033,-0.679l0,14.713c0.463,0.3 1.196,0.8 1.929,1.333c5.867,4.154 18.85,14.967 20.358,30.288c1.25,12.658 -5.621,25.696 -20.358,38.763c-0.175,0.175 -0.342,0.342 -0.529,0.504l-1.4,1.238l-0.979,0.854l0.979,0.379l1.929,0.775l0.029,0.012c0.217,0.096 21.525,9.088 11.379,40.608c-0.15,0.487 -14.708,48.921 -74.021,48.921l-0.504,0c-0.325,0.054 -36.479,1.875 -84.546,-25.342l-1.317,-0.733l-1.046,1.087c-0.229,0.246 -23.467,24.121 -49.979,23.579c-0.338,0.067 -23.617,1.779 -38.763,-28.779l-0.775,-1.533l-1.617,0.554c-0.192,0.054 -17.683,5.854 -26.988,-2.892c-0.613,-0.571 -1.183,-1.221 -1.725,-1.929l-2.567,0l-0.012,-0.029l-8.962,0l0,0.029l-2.004,0l0.133,0.487c0,0.017 0.104,0.296 0.246,0.663c0.087,0.229 0.179,0.462 0.308,0.775c1.954,4.671 10.296,19.583 36.942,16.217c3.342,5.5 18.7,27.992 45.754,27.992l0.012,0c0.963,0.079 23.946,2.008 52.779,-21.513c7.363,3.804 46.571,23.171 80.85,23.171c3.163,0 6.288,-0.162 9.329,-0.517c0.854,0.013 54.842,0.421 78.025,-51.962c0.15,-0.3 14.262,-28.954 -6.058,-51.121c4.792,-4.571 18.888,-19.792 17.692,-39.842Z" style="fill:#fff;fill-rule:nonzero;"/><path d="M360.95,529.049l-1.529,-0.842c-26.858,-21.296 -51.746,-32.092 -73.975,-32.092c-4.025,0 -8.013,0.358 -11.858,1.062c-27.688,5.075 -40.992,27.117 -41.121,27.35l-4.425,7.475l-1.3,-8.583c-3.421,-22.35 -14.654,-23.829 -14.883,-23.863c-0.775,-0.158 -1.604,-0.237 -2.458,-0.237c-12.221,0 -28.425,16.242 -28.596,16.421l-3.812,3.858l-1.387,-5.225c-8.6,-32.004 -30.267,-32.675 -31.075,-32.688c-29.333,2.379 -40.671,15.763 -40.817,15.938c-14.642,16.5 1.021,34.046 2.85,35.983l3.079,3.208l-4.092,1.779c-41.15,17.854 -38.783,32.967 -38.738,33.213c1.404,10.85 25.354,21.858 40.117,26.242l4.204,1.258l-2.6,3.55c-23.617,32.183 -16.554,48.092 -14.862,50.929l0.512,1.404l217.067,0c27.408,0 49.704,-22.396 49.704,-49.925l0,-4.483l-0.004,-71.733Z" style="fill:#fff;fill-rule:nonzero;"/><path d="M311.25,368.49l-261.538,0c-27.408,0 -49.712,22.329 -49.712,49.775l0,187.15c0,27.45 22.304,49.775 49.712,49.775l29.158,0l-0.204,-0.479c-6.521,-18.683 4.767,-40.083 9.504,-47.829c-23.083,-9.562 -35.075,-20.983 -35.646,-33.946c-0.854,-20.008 25.646,-36.308 35.342,-41.579c-5.25,-11.521 -5.987,-22.204 -2.175,-31.771c7.008,-17.708 26.587,-24.783 27.417,-25.075c9.8,-4.521 19.237,-6.837 27.967,-6.837c6,0 11.746,1.1 17.071,3.275c14.575,5.921 22.421,18.242 25.558,24.379c9.504,-6.242 18.271,-9.404 26.071,-9.404c2.867,0 5.629,0.429 8.229,1.275c8.758,2.85 13.775,9.729 16.267,14.358c14.004,-12.396 30.6,-18.675 49.354,-18.675c34.975,0 67.867,22.117 77.121,28.9l0.225,0.158l0,-93.679c-0.012,-27.442 -22.312,-49.771 -49.721,-49.771Z" style="fill:#fff;fill-rule:nonzero;"/></g></g></g></g></g></g></g></svg>