<?xml version="1.0" encoding="UTF-8"?>
<svg id="Layer_1" data-name="Layer 1" xmlns="http://www.w3.org/2000/svg" viewBox="0 0 820 406">
  <defs>
    <style>
      .cls-1 {
        fill: #00081b;
      }
    </style>
  </defs>
  <g id="Logo">
    <g>
      <path class="cls-1" d="M181.77,214.93h-34.2l5.13-29.07h34.2l11.63-67.72h-34.2l5.13-29.07h-6.5c-38.99,0-50.96,58.48-50.96,87.9,0,27.02,8.89,37.96,29.07,37.96h6.5l-5.13,29.07h-6.5c-50.62,0-75.93-25.99-75.93-70.11,0-50.27,30.78-113.89,108.09-113.89h6.5l-5.13,29.07h34.2l4.45-24.28h52.33l-30.78,174.42h-52.33l4.45-24.28Z"/>
      <path class="cls-1" d="M285.75,175.6c0-72.85,47.2-115.6,109.8-115.6,32.49,0,71.49,13,72.86,60.19h-51.65c-.68-20.86-13.68-31.12-26.34-31.12-40.36,0-52.67,54.04-52.67,86.19,0,28.04,10.6,39.67,30.78,39.67,14.37,0,30.44-10.26,37.63-32.83h51.65c-15.39,40.7-52.33,61.9-94.4,61.9-47.2,0-77.64-22.91-77.64-68.4Z"/>
      <path class="cls-1" d="M613.08,93.86h52.33l-25.65,145.35h-52.33l25.65-145.35h-47.89l-25.65,145.35h-52.33l30.78-174.42h100.22l-5.13,29.07ZM705.43,147.21c5.81-32.83,6.16-53.35-23.26-53.35h-16.76l5.13-29.07h13.34c52.67,0,85.17,18.47,73.88,83.11l-16.08,91.32h-52.33l16.08-92Z"/>
    </g>
    <g>
      <path class="cls-1" d="M73.38,290.2c1.85-1.82,4.05-3.23,6.58-4.24,2.53-1.01,5.27-1.51,8.23-1.51s5.54.52,8.04,1.55c2.5,1.04,4.76,2.61,6.77,4.73l4.89-4.77c-2.41-2.72-5.33-4.78-8.76-6.17-3.43-1.39-7.18-2.08-11.24-2.08s-7.71.67-11.09,2.01c-3.38,1.34-6.33,3.23-8.83,5.68-2.51,2.45-4.46,5.31-5.86,8.59-1.4,3.28-2.1,6.89-2.1,10.83s.7,7.55,2.1,10.83c1.4,3.28,3.35,6.15,5.83,8.59s5.41,4.34,8.8,5.68,7.08,2.01,11.09,2.01,7.88-.71,11.31-2.12c3.43-1.41,6.35-3.48,8.76-6.21l-4.89-4.77c-2.01,2.17-4.26,3.77-6.77,4.81-2.51,1.03-5.19,1.55-8.04,1.55s-5.7-.5-8.23-1.51c-2.53-1.01-4.72-2.42-6.58-4.24-1.85-1.82-3.3-3.97-4.32-6.47-1.03-2.5-1.54-5.21-1.54-8.14s.51-5.64,1.54-8.14c1.03-2.5,2.47-4.66,4.32-6.47Z"/>
      <path class="cls-1" d="M131.56,290.81c-3.16,0-6.18.44-9.06,1.32-2.88.88-5.35,2.16-7.4,3.82l3.01,5.45c1.55-1.31,3.46-2.36,5.71-3.14,2.25-.78,4.56-1.17,6.92-1.17,3.56,0,6.23.85,8.01,2.54,1.78,1.69,2.67,4.08,2.67,7.15v1.44h-11.43c-3.96,0-7.1.53-9.43,1.59-2.33,1.06-4.01,2.47-5.04,4.24-1.03,1.77-1.54,3.74-1.54,5.91s.6,4.3,1.8,6.09c1.2,1.79,2.92,3.19,5.15,4.2,2.23,1.01,4.82,1.51,7.78,1.51,3.66,0,6.69-.69,9.1-2.08,1.69-.97,3.01-2.2,3.98-3.66v5.28h6.84v-24.23c0-5.5-1.48-9.59-4.44-12.26-2.96-2.67-7.17-4.01-12.63-4.01ZM137.01,324.35c-2.03,1.21-4.4,1.82-7.1,1.82s-4.91-.59-6.46-1.78c-1.55-1.19-2.33-2.76-2.33-4.73,0-1.71.63-3.18,1.88-4.39,1.25-1.21,3.68-1.82,7.29-1.82h11.13v5.6c-.9,2.32-2.37,4.09-4.4,5.3Z"/>
      <path class="cls-1" d="M193.51,293.38c-3.01-1.72-6.46-2.57-10.37-2.57-3.41,0-6.48.76-9.21,2.27-1.97,1.09-3.63,2.58-5,4.46v-6.35h-6.92v54.81h7.22v-20.79c1.36,1.76,2.97,3.18,4.85,4.24,2.73,1.54,5.75,2.31,9.06,2.31,3.91,0,7.37-.86,10.37-2.57,3.01-1.71,5.39-4.11,7.14-7.19,1.75-3.08,2.63-6.66,2.63-10.75s-.88-7.66-2.63-10.71c-1.76-3.05-4.13-5.44-7.14-7.15ZM194.22,318.71c-1.18,2.15-2.78,3.8-4.81,4.96-2.03,1.16-4.32,1.74-6.88,1.74s-4.77-.58-6.8-1.74c-2.03-1.16-3.63-2.81-4.81-4.96-1.18-2.14-1.77-4.63-1.77-7.46s.59-5.36,1.77-7.46c1.18-2.09,2.78-3.72,4.81-4.88,2.03-1.16,4.3-1.74,6.8-1.74s4.85.58,6.88,1.74c2.03,1.16,3.63,2.79,4.81,4.88,1.18,2.09,1.77,4.58,1.77,7.46s-.59,5.31-1.77,7.46Z"/>
      <rect class="cls-1" x="213.28" y="291.19" width="7.22" height="40.13"/>
      <polygon class="cls-1" points="230.64 275.51 221.47 275.51 211.25 285.36 218.01 285.36 230.64 275.51"/>
      <path class="cls-1" d="M248.76,325.63c-2.01,0-3.55-.58-4.62-1.74-1.08-1.16-1.62-2.83-1.62-5v-21.73h11.43v-5.98h-11.43v-8.78h-7.22v8.78h-6.77v5.98h6.77v22.03c0,4.04,1.1,7.14,3.31,9.31,2.2,2.17,5.31,3.26,9.32,3.26,1.65,0,3.24-.23,4.77-.68,1.53-.45,2.84-1.16,3.95-2.12l-2.26-5.22c-1.5,1.26-3.38,1.89-5.64,1.89Z"/>
      <path class="cls-1" d="M295.29,311.93c0,2.83-.5,5.24-1.5,7.23-1,2-2.43,3.51-4.28,4.54-1.85,1.03-4.03,1.55-6.54,1.55-3.41,0-6.05-.98-7.93-2.95-1.88-1.97-2.82-4.92-2.82-8.86v-22.26h-7.22v23.09c0,3.94.71,7.21,2.14,9.8,1.43,2.6,3.43,4.53,6.01,5.79,2.58,1.26,5.57,1.89,8.98,1.89s6.19-.73,8.8-2.2c1.94-1.09,3.52-2.52,4.74-4.28v6.02h6.84v-40.13h-7.22v20.74Z"/>
      <rect class="cls-1" x="316.26" y="275.14" width="7.22" height="56.18"/>
      <path class="cls-1" d="M364.93,293.42c-3.13-1.74-6.68-2.61-10.64-2.61s-7.57.87-10.67,2.61c-3.11,1.74-5.56,4.15-7.37,7.23-1.8,3.08-2.71,6.61-2.71,10.6s.9,7.46,2.71,10.56c1.8,3.1,4.26,5.54,7.37,7.31,3.11,1.77,6.66,2.65,10.67,2.65s7.5-.88,10.64-2.65c3.13-1.77,5.59-4.19,7.37-7.27,1.78-3.08,2.67-6.61,2.67-10.6s-.89-7.58-2.67-10.64c-1.78-3.05-4.24-5.45-7.37-7.19ZM365.95,318.71c-1.15,2.15-2.74,3.8-4.77,4.96-2.03,1.16-4.32,1.74-6.88,1.74s-4.84-.58-6.84-1.74c-2.01-1.16-3.61-2.81-4.81-4.96-1.2-2.14-1.8-4.63-1.8-7.46s.6-5.36,1.8-7.46c1.2-2.09,2.81-3.72,4.81-4.88,2-1.16,4.28-1.74,6.84-1.74s4.85.58,6.88,1.74c2.03,1.16,3.62,2.79,4.77,4.88,1.15,2.09,1.73,4.58,1.73,7.46s-.58,5.31-1.73,7.46Z"/>
      <path class="cls-1" d="M403.01,284.9h19.02v29.75c0,7.17-3.01,10.75-9.02,10.75-2.21,0-4.22-.54-6.05-1.63-1.83-1.08-3.47-2.64-4.92-4.66l-4.36,5.15c1.7,2.47,3.91,4.37,6.62,5.68,2.71,1.31,5.61,1.97,8.72,1.97,5.41,0,9.51-1.46,12.29-4.39,2.78-2.93,4.17-7.34,4.17-13.25v-35.96h-26.46v6.59Z"/>
      <path class="cls-1" d="M458.26,290.81c-3.16,0-6.18.44-9.06,1.32-2.88.88-5.35,2.16-7.4,3.82l3.01,5.45c1.55-1.31,3.46-2.36,5.71-3.14,2.26-.78,4.56-1.17,6.92-1.17,3.56,0,6.23.85,8.01,2.54,1.78,1.69,2.67,4.08,2.67,7.15v1.44h-11.43c-3.96,0-7.1.53-9.43,1.59-2.33,1.06-4.01,2.47-5.04,4.24-1.03,1.77-1.54,3.74-1.54,5.91s.6,4.3,1.8,6.09c1.2,1.79,2.92,3.19,5.15,4.2,2.23,1.01,4.82,1.51,7.78,1.51,3.66,0,6.69-.69,9.1-2.08,1.69-.97,3.01-2.2,3.98-3.66v5.28h6.84v-24.23c0-5.5-1.48-9.59-4.44-12.26-2.96-2.67-7.17-4.01-12.63-4.01ZM463.71,324.35c-2.03,1.21-4.4,1.82-7.1,1.82s-4.91-.59-6.47-1.78c-1.55-1.19-2.33-2.76-2.33-4.73,0-1.71.63-3.18,1.88-4.39,1.25-1.21,3.68-1.82,7.29-1.82h11.13v5.6c-.9,2.32-2.37,4.09-4.4,5.3Z"/>
      <polygon class="cls-1" points="502.18 323.33 488.48 291.19 480.96 291.19 498.4 331.31 505.77 331.31 523.21 291.19 516.14 291.19 502.18 323.33"/>
      <path class="cls-1" d="M555.38,293.38c-2.96-1.72-6.37-2.57-10.22-2.57s-7.23.87-10.26,2.61c-3.03,1.74-5.41,4.15-7.14,7.23-1.73,3.08-2.59,6.61-2.59,10.6s.89,7.52,2.67,10.6c1.78,3.08,4.28,5.5,7.52,7.27,3.23,1.77,6.98,2.65,11.24,2.65,3.31,0,6.3-.55,8.98-1.67,2.68-1.11,4.92-2.72,6.73-4.85l-3.98-4.69c-1.45,1.62-3.15,2.83-5.07,3.63-1.93.81-4.07,1.21-6.43,1.21-2.86,0-5.39-.58-7.59-1.74-2.21-1.16-3.92-2.79-5.15-4.88-.91-1.54-1.48-3.25-1.71-5.11h32.34c.05-.35.09-.73.11-1.14.02-.4.04-.76.04-1.06,0-4.14-.84-7.76-2.52-10.86-1.68-3.1-4-5.51-6.95-7.23ZM538.47,298.64c1.95-1.14,4.18-1.7,6.69-1.7s4.8.57,6.73,1.7c1.93,1.14,3.45,2.71,4.55,4.73.83,1.53,1.34,3.22,1.51,5.07h-25.6c.21-1.84.72-3.52,1.54-5.03,1.1-2.04,2.63-3.63,4.59-4.77Z"/>
      <path class="cls-1" d="M581.77,297.94v-6.75h-6.92v40.13h7.22v-19.99c0-4.39,1.13-7.75,3.38-10.07,2.25-2.32,5.31-3.48,9.17-3.48h.79c.27,0,.56.03.86.08v-7.04c-3.81,0-7.02.73-9.62,2.19-2.14,1.2-3.76,2.85-4.89,4.93Z"/>
      <rect class="cls-1" x="605.15" y="291.19" width="7.22" height="40.13"/>
      <path class="cls-1" d="M608.75,274c-1.4,0-2.57.45-3.5,1.36-.93.91-1.39,2.04-1.39,3.41s.46,2.42,1.39,3.33c.93.91,2.09,1.36,3.5,1.36s2.63-.47,3.53-1.4c.9-.93,1.35-2.08,1.35-3.44s-.46-2.41-1.39-3.29c-.93-.88-2.09-1.32-3.5-1.32Z"/>
      <path class="cls-1" d="M640.63,290.81c-3.16,0-6.18.44-9.06,1.32-2.88.88-5.35,2.16-7.4,3.82l3.01,5.45c1.55-1.31,3.46-2.36,5.71-3.14,2.26-.78,4.56-1.17,6.92-1.17,3.56,0,6.23.85,8.01,2.54,1.78,1.69,2.67,4.08,2.67,7.15v1.44h-11.43c-3.96,0-7.1.53-9.43,1.59-2.33,1.06-4.01,2.47-5.04,4.24-1.03,1.77-1.54,3.74-1.54,5.91s.6,4.3,1.8,6.09c1.2,1.79,2.92,3.19,5.15,4.2,2.23,1.01,4.82,1.51,7.78,1.51,3.66,0,6.69-.69,9.1-2.08,1.69-.97,3.01-2.2,3.98-3.66v5.28h6.84v-24.23c0-5.5-1.48-9.59-4.44-12.26-2.96-2.67-7.17-4.01-12.63-4.01ZM646.08,324.35c-2.03,1.21-4.4,1.82-7.1,1.82s-4.91-.59-6.47-1.78c-1.55-1.19-2.33-2.76-2.33-4.73,0-1.71.63-3.18,1.88-4.39,1.25-1.21,3.68-1.82,7.29-1.82h11.13v5.6c-.9,2.32-2.37,4.09-4.4,5.3Z"/>
      <path class="cls-1" d="M700.95,292.7c-2.48-1.26-5.35-1.89-8.61-1.89-3.61,0-6.77.73-9.47,2.19-2.02,1.09-3.65,2.51-4.89,4.25v-6.07h-6.92v40.13h7.22v-20.67c0-2.93.51-5.38,1.54-7.34,1.03-1.97,2.49-3.46,4.4-4.47,1.9-1.01,4.13-1.51,6.69-1.51,3.41,0,6.05.98,7.93,2.95,1.88,1.97,2.82,4.9,2.82,8.78v22.26h7.22v-23.09c0-3.94-.7-7.19-2.11-9.77-1.4-2.57-3.35-4.49-5.83-5.75Z"/>
      <path class="cls-1" d="M757.33,300.61c-1.78-3.05-4.24-5.45-7.37-7.19-3.13-1.74-6.68-2.61-10.64-2.61s-7.57.87-10.67,2.61c-3.11,1.74-5.56,4.15-7.37,7.23-1.8,3.08-2.71,6.61-2.71,10.6s.9,7.46,2.71,10.56c1.8,3.1,4.26,5.54,7.37,7.31,3.11,1.77,6.66,2.65,10.67,2.65s7.5-.88,10.64-2.65c3.13-1.77,5.59-4.19,7.37-7.27,1.78-3.08,2.67-6.61,2.67-10.6s-.89-7.58-2.67-10.64ZM750.98,318.71c-1.15,2.15-2.74,3.8-4.77,4.96-2.03,1.16-4.32,1.74-6.88,1.74s-4.84-.58-6.84-1.74c-2.01-1.16-3.61-2.81-4.81-4.96-1.2-2.14-1.8-4.63-1.8-7.46s.6-5.36,1.8-7.46,2.81-3.72,4.81-4.88c2-1.16,4.28-1.74,6.84-1.74s4.85.58,6.88,1.74c2.03,1.16,3.62,2.79,4.77,4.88,1.15,2.09,1.73,4.58,1.73,7.46s-.58,5.31-1.73,7.46Z"/>
    </g>
  </g>
</svg>